<?xml version="1.0" standalone="no"?><!DOCTYPE svg PUBLIC "-//W3C//DTD SVG 1.1//EN" "http://www.w3.org/Graphics/SVG/1.1/DTD/svg11.dtd"><svg t="1761656146462" class="icon" viewBox="0 0 1024 1024" version="1.1" xmlns="http://www.w3.org/2000/svg" p-id="1137" xmlns:xlink="http://www.w3.org/1999/xlink" width="200" height="200"><path d="M279.272727 352.415584c0-110.173091 89.307429-199.480519 199.48052-199.480519 110.173091 0 199.480519 89.307429 199.480519 199.480519v305.87013c0 44.065247-35.726961 79.792208-79.792208 79.792208H359.064935c-44.065247 0-79.792208-35.726961-79.792208-79.792208V352.415584z" fill="#B3C3D8" p-id="1138"></path><path d="M359.064935 342.441558V625.038961h99.74026V342.441558a49.87013 49.87013 0 0 0-99.74026 0z" fill="#80A4D1" p-id="1139"></path><path d="M525.298701 847.792208V764.675325H438.857143v83.116883a43.220779 43.220779 0 1 0 86.441558 0z" fill="#FCC79F" p-id="1140"></path><path d="M538.597403 342.441558V625.038961h99.740259V342.441558a49.87013 49.87013 0 0 0-99.740259 0z" fill="#80A4D1" p-id="1141"></path><path d="M502.025974 86.441558C639.734026 86.441558 751.376623 198.084156 751.376623 335.792208V664.935065c0 55.083221-44.657039 99.74026-99.740259 99.74026H585.142857v83.116883c0 45.907117-37.209766 83.116883-83.116883 83.116883S418.909091 893.699325 418.909091 847.792208V764.675325H352.415584c-55.083221 0-99.74026-44.657039-99.740259-99.74026V335.792208C252.675325 198.084156 364.317922 86.441558 502.025974 86.441558zM458.805195 764.675325v83.116883a43.220779 43.220779 0 1 0 86.441558 0V764.675325H458.805195z m43.220779-638.337663C386.347221 126.337662 292.571429 220.113455 292.571429 335.792208V664.935065a59.844156 59.844156 0 0 0 59.844155 59.844156h299.22078a59.844156 59.844156 0 0 0 59.844155-59.844156V335.792208C711.480519 220.113455 617.704727 126.337662 502.025974 126.337662z m-93.090909 146.285715C447.494649 272.623377 478.753247 303.881974 478.753247 342.441558V625.038961a19.948052 19.948052 0 1 1-39.896104 0V342.441558a29.922078 29.922078 0 1 0-59.844156 0V625.038961a19.948052 19.948052 0 1 1-39.896104 0V342.441558C339.116883 303.881974 370.375481 272.623377 408.935065 272.623377z m179.532467 0C627.027117 272.623377 658.285714 303.881974 658.285714 342.441558V625.038961a19.948052 19.948052 0 1 1-39.896104 0V342.441558a29.922078 29.922078 0 1 0-59.844155 0V625.038961a19.948052 19.948052 0 1 1-39.896104 0V342.441558C518.649351 303.881974 549.907948 272.623377 588.467532 272.623377z" fill="#25467A" p-id="1142"></path></svg>